<svg xmlns="http://www.w3.org/2000/svg" width="64" height="64" viewBox="0 0 64 64" fill="none">
  <defs>
    <linearGradient id="g" x1="6" y1="8" x2="58" y2="56" gradientUnits="userSpaceOnUse">
      <stop stop-color="#22c55e" />
      <stop offset="1" stop-color="#3b82f6" />
    </linearGradient>
  </defs>
  <rect x="4" y="4" width="56" height="56" rx="14" fill="url(#g)" />
  <g transform="translate(12 14)" stroke="#ffffff" stroke-width="3" stroke-linecap="round" stroke-linejoin="round">
    <path d="M26 24V6a3 3 0 0 0-3-3H6a3 3 0 0 0-3 3v16.5A1.5 1.5 0 0 0 4.5 24H8" />
    <path d="M28 24H18" />
    <path d="M34 24h3a1.5 1.5 0 0 0 1.5-1.5v-5.475a1.5 1.5 0 0 0-.33-.936L33.95 10.6A1.5 1.5 0 0 0 32.82 10H26" />
    <circle cx="32" cy="24" r="3" />
    <circle cx="12" cy="24" r="3" />
  </g>
</svg>
